HIERARCHY
ROOT hip
{
  OFFSET 0.0 0.0 0.0
  CHANNELS 6 Xposition Yposition Zposition Zrotation Yrotation Xrotation
  JOINT abdomen
  {
    OFFSET 0.0 20.6881 -0.73152
    CHANNELS 3 Zrotation Xrotation Yrotation
    JOINT chest
    {
      OFFSET 0.0 11.7043 -0.48768
      CHANNELS 3 Zrotation Xrotation Yrotation
      JOINT neck
      {
        OFFSET 0.0 22.1894 -2.19456
        CHANNELS 3 Zrotation Xrotation Yrotation
        JOINT head
        {
          OFFSET -0.24384 7.07133 1.2192
          CHANNELS 3 Zrotation Xrotation Yrotation
          JOINT leftEye
          {
            OFFSET 4.14528 8.04674 8.04672
            CHANNELS 3 Zrotation Xrotation Yrotation
            End Site
            {
              OFFSET 1.0 0.0 0.0
            }
          }
          JOINT rightEye
          {
            OFFSET -3.6576 8.04674 8.04672
            CHANNELS 3 Zrotation Xrotation Yrotation
            End Site
            {
              OFFSET 1.0 0.0 0.0
            }
          }
        }
      }
      JOINT rCollar
      {
        OFFSET -2.68224 19.2634 -4.8768
        CHANNELS 3 Zrotation Xrotation Yrotation
        JOINT rShldr
        {
          OFFSET -8.77824 -1.95073 1.46304
          CHANNELS 3 Zrotation Xrotation Yrotation
          JOINT rForeArm
          {
            OFFSET -28.1742 -1.7115 0.48768
            CHANNELS 3 Zrotation Xrotation Yrotation
            JOINT rHand
            {
              OFFSET -22.5879 0.773209 7.07136
              CHANNELS 3 Zrotation Xrotation Yrotation
              JOINT rThumb1
              {
                OFFSET -1.2192 -0.487915 3.41376
                CHANNELS 3 Zrotation Xrotation Yrotation
                JOINT rThumb2
                {
                  OFFSET -3.37035 -0.52449 3.41376
                  CHANNELS 3 Zrotation Xrotation Yrotation
                  End Site
                  {
                    OFFSET -1.78271 -1.18214 1.43049
                  }
                }
              }
              JOINT rIndex1
              {
                OFFSET -7.75947 0.938293 5.60832
                CHANNELS 3 Zrotation Xrotation Yrotation
                JOINT rIndex2
                {
                  OFFSET -2.54057 -0.884171 1.56538
                  CHANNELS 3 Zrotation Xrotation Yrotation
                  End Site
                  {
                    OFFSET -1.62519 -0.234802 1.16502
                  }
                }
              }
              JOINT rMid1
              {
                OFFSET -8.24714 1.18213 3.41376
                CHANNELS 3 Zrotation Xrotation Yrotation
                JOINT rMid2
                {
                  OFFSET -3.10165 -0.590103 1.0647
                  CHANNELS 3 Zrotation Xrotation Yrotation
                  End Site
                  {
                    OFFSET -2.48547 -0.328903 0.83742
                  }
                }
              }
              JOINT rRing1
              {
                OFFSET -8.82822 0.546677 1.51678
                CHANNELS 3 Zrotation Xrotation Yrotation
                JOINT rRing2
                {
                  OFFSET -2.60934 -0.819778 -0.0198488
                  CHANNELS 3 Zrotation Xrotation Yrotation
                  End Site
                  {
                    OFFSET -2.33842 -0.294052 0.168128
                  }
                }
              }
              JOINT rPinky1
              {
                OFFSET -8.27202 -0.0477905 -0.4584
                CHANNELS 3 Zrotation Xrotation Yrotation
                JOINT rPinky2
                {
                  OFFSET -1.82734 -0.647385 -0.700984
                  CHANNELS 3 Zrotation Xrotation Yrotation
                  End Site
                  {
                    OFFSET -1.69225 -0.51767 -0.607171
                  }
                }
              }
            }
          }
        }
      }
      JOINT lCollar
      {
        OFFSET 2.68224 19.2634 -4.8768
        CHANNELS 3 Zrotation Xrotation Yrotation
        JOINT lShldr
        {
          OFFSET 8.77824 -1.95073 1.46304
          CHANNELS 3 Zrotation Xrotation Yrotation
          JOINT lForeArm
          {
            OFFSET 28.1742 -1.7115 0.48768
            CHANNELS 3 Zrotation Xrotation Yrotation
            JOINT lHand
            {
              OFFSET 22.5879 0.773209 7.07136
              CHANNELS 3 Zrotation Xrotation Yrotation
              JOINT lThumb1
              {
                OFFSET 1.2192 -0.487915 3.41376
                CHANNELS 3 Zrotation Xrotation Yrotation
                JOINT lThumb2
                {
                  OFFSET 3.37035 -0.52449 3.41376
                  CHANNELS 3 Zrotation Xrotation Yrotation
                  End Site
                  {
                    OFFSET 1.78271 -1.18214 1.43049
                  }
                }
              }
              JOINT lIndex1
              {
                OFFSET 7.75947 0.938293 5.60832
                CHANNELS 3 Zrotation Xrotation Yrotation
                JOINT lIndex2
                {
                  OFFSET 2.54057 -0.884171 1.56538
                  CHANNELS 3 Zrotation Xrotation Yrotation
                  End Site
                  {
                    OFFSET 1.62519 -0.234802 1.16502
                  }
                }
              }
              JOINT lMid1
              {
                OFFSET 8.24714 1.18213 3.41376
                CHANNELS 3 Zrotation Xrotation Yrotation
                JOINT lMid2
                {
                  OFFSET 3.10165 -0.590103 1.0647
                  CHANNELS 3 Zrotation Xrotation Yrotation
                  End Site
                  {
                    OFFSET 2.48547 -0.328903 0.83742
                  }
                }
              }
              JOINT lRing1
              {
                OFFSET 8.82822 0.546677 1.51678
                CHANNELS 3 Zrotation Xrotation Yrotation
                JOINT lRing2
                {
                  OFFSET 2.60934 -0.819778 -0.0198488
                  CHANNELS 3 Zrotation Xrotation Yrotation
                  End Site
                  {
                    OFFSET 2.33842 -0.294052 0.168128
                  }
                }
              }
              JOINT lPinky1
              {
                OFFSET 8.27202 -0.0477905 -0.4584
                CHANNELS 3 Zrotation Xrotation Yrotation
                JOINT lPinky2
                {
                  OFFSET 1.82734 -0.647385 -0.700984
                  CHANNELS 3 Zrotation Xrotation Yrotation
                  End Site
                  {
                    OFFSET 1.69225 -0.51767 -0.607171
                  }
                }
              }
            }
          }
        }
      }
    }
  }
  JOINT rButtock
  {
    OFFSET -8.77824 4.35084 1.2192
    CHANNELS 3 Zrotation Xrotation Yrotation
    JOINT rThigh
    {
      OFFSET 0.0 -1.70687 -2.19456
      CHANNELS 3 Zrotation Xrotation Yrotation
      JOINT rShin
      {
        OFFSET 0.0 -36.8199 0.73152
        CHANNELS 3 Zrotation Xrotation Yrotation
        JOINT rFoot
        {
          OFFSET 0.73152 -45.1104 -5.12064
          CHANNELS 3 Zrotation Xrotation Yrotation
          End Site
          {
            OFFSET -1.1221 -3.69964 12.103
          }
        }
      }
    }
  }
  JOINT lButtock
  {
    OFFSET 8.77824 4.35084 1.2192
    CHANNELS 3 Zrotation Xrotation Yrotation
    JOINT lThigh
    {
      OFFSET 0.0 -1.70687 -2.19456
      CHANNELS 3 Zrotation Xrotation Yrotation
      JOINT lShin
      {
        OFFSET 0.0 -36.8199 0.73152
        CHANNELS 3 Zrotation Xrotation Yrotation
        JOINT lFoot
        {
          OFFSET -0.73152 -45.1104 -5.12064
          CHANNELS 3 Zrotation Xrotation Yrotation
          End Site
          {
            OFFSET 1.1221 -3.69964 12.103
          }
        }
      }
    }
  }
}
MOTION
Frames: 9
Frame Time: 0.00833333
0.0 80.7729 0.0 -1.8725 4.1557 5.7143 3.88478 1.7442 -2.09789 3.11024 -4.21819 -0.457829 6.39455 -5.85164 1.40774 -10.7617 3.25898 0.68534 -0.0 0.0 0.0 -0.0 0.0 0.0 8.78275e-14 7.15644e-14 6.21202e-15 78.6223 15.4448 -3.16795 -10.9028 -4.7083 19.5057 -0.007076 -2.40109 -0.337651 -6.49899e-10 4.89745e-10 -4.07626e-10 -1.12327e-09 8.45624e-10 -7.03862e-10 -6.49896e-10 4.89747e-10 -4.07633e-10 7.73091 5.47488 0.417314 -6.49902e-10 4.89746e-10 -4.07623e-10 2.90554 0.965183 0.102902 -6.49889e-10 4.89747e-10 -4.07628e-10 10.2786 0.731801 0.0259123 -6.49906e-10 4.89749e-10 -4.0762e-10 2.22167 -0.733487 -0.20892 8.78045e-14 7.15605e-14 5.91384e-15 -82.3726 24.7988 3.9464 13.3455 -6.43827 -24.2463 0.102862 -9.10911 1.29121 -2.32566e-10 -2.53457e-10 3.16297e-10 -4.01275e-10 -4.41013e-10 5.45738e-10 -2.3257e-10 -2.53456e-10 3.16316e-10 -7.73091 5.47488 -0.417314 -2.32566e-10 -2.53461e-10 3.163e-10 -2.90554 0.965183 -0.102902 -2.32574e-10 -2.53461e-10 3.16307e-10 -10.2786 0.731801 -0.0259123 -2.3256e-10 -2.5346e-10 3.16303e-10 -2.22167 -0.733487 0.20892 -2.03217e-16 0.0 -3.88251e-19 3.96022 -14.5771 -2.84268 -0.170838 33.7639 0.882538 -11.6862 -22.348 -23.3223 2.03217e-16 0.0 3.88251e-19 6.56255 -24.269 1.80718 0.485076 46.9687 -0.985085 5.59402 -10.4641 17.5943
-0.09577999999999998 80.7161 0.20199999999999818 -2.078 4.3182 5.7667 4.27825 1.98563 -2.01188 3.02484 -4.28015 -0.427239 6.30302 -5.91047 1.34559 -10.7142 3.07555 0.572637 -0.0 0.0 0.0 -0.0 0.0 0.0 1.07382e-13 7.90165e-14 2.39745e-14 78.5772 15.3502 -3.14099 -10.859 -4.67992 19.4225 -0.00679583 -2.35335 -0.330929 -8.09692e-10 5.61558e-10 -4.84395e-10 -1.39889e-09 9.69323e-10 -8.36725e-10 -8.0969e-10 5.6156e-10 -4.84402e-10 7.73091 5.47488 0.417314 -8.09697e-10 5.61559e-10 -4.84392e-10 2.90554 0.965183 0.102902 -8.09683e-10 5.6156e-10 -4.84396e-10 10.2786 0.731801 0.0259123 -8.09699e-10 5.61562e-10 -4.84387e-10 2.22167 -0.733487 -0.20892 1.07297e-13 7.90109e-14 2.36511e-14 -82.3541 24.8086 3.83052 13.3659 -6.45396 -24.2869 0.102345 -9.08656 1.28796 -5.28763e-10 -4.69898e-10 3.59249e-10 -9.1371e-10 -8.15794e-10 6.18653e-10 -5.28767e-10 -4.69897e-10 3.59268e-10 -7.73091 5.47488 -0.417314 -5.28763e-10 -4.69901e-10 3.59252e-10 -2.90554 0.965183 -0.102902 -5.2877e-10 -4.69901e-10 3.59258e-10 -10.2786 0.731801 -0.0259123 -5.28758e-10 -4.699e-10 3.59252e-10 -2.22167 -0.733487 0.20892 -2.03217e-16 0.0 -3.88251e-19 4.25146 -14.363 -3.03599 -0.166577 33.5539 0.879243 -11.7371 -22.3781 -23.4361 2.03217e-16 0.0 3.88251e-19 6.93498 -25.4622 1.9514 0.53397 48.589 -1.03928 5.51122 -10.2864 17.3678
-0.17998000000000003 80.6644 0.41900000000001114 -2.2568 4.4682 5.8418 4.6409 2.19704 -1.89217 2.93505 -4.32769 -0.387867 6.1973 -5.95685 1.26108 -10.6393 2.86124 0.419146 -0.0 0.0 0.0 -0.0 0.0 0.0 1.33981e-13 8.11833e-14 4.39749e-14 78.5411 15.2016 -3.11546 -10.8082 -4.64705 19.3263 -0.0063559 -2.2734 -0.319675 -1.09892e-09 7.03194e-10 -6.51217e-10 -1.89788e-09 1.21371e-09 -1.12554e-09 -1.09892e-09 7.03197e-10 -6.51226e-10 7.73091 5.47488 0.417314 -1.09893e-09 7.03196e-10 -6.51217e-10 2.90554 0.965183 0.102902 -1.09892e-09 7.03197e-10 -6.51219e-10 10.2786 0.731801 0.0259123 -1.09893e-09 7.03197e-10 -6.51208e-10 2.22167 -0.733487 -0.20892 1.33797e-13 8.11736e-14 4.36301e-14 -82.3185 24.8213 3.68945 13.374 -6.46027 -24.3032 0.101148 -9.03391 1.28037 -1.11176e-09 -7.80509e-10 4.01317e-10 -1.92219e-09 -1.35304e-09 6.88559e-10 -1.11176e-09 -7.80507e-10 4.01335e-10 -7.73091 5.47488 -0.417314 -1.11176e-09 -7.80511e-10 4.01319e-10 -2.90554 0.965183 -0.102902 -1.11176e-09 -7.8051e-10 4.01323e-10 -10.2786 0.731801 -0.0259123 -1.11175e-09 -7.80508e-10 4.01316e-10 -2.22167 -0.733487 0.20892 -2.03217e-16 0.0 -3.88251e-19 4.52432 -14.1646 -3.22361 -0.16213 33.3364 0.876244 -11.7936 -22.4035 -23.5648 2.03217e-16 0.0 3.88251e-19 7.28193 -26.7185 2.09856 0.586533 50.1895 -1.09755 5.43461 -10.178 17.0931
-0.25997000000000003 80.6293 0.6550000000000011 -2.4316 4.6223 5.931 4.97587 2.38729 -1.78345 2.86619 -4.36881 -0.351574 6.0983 -5.97221 1.19578 -10.5979 2.60284 0.300754 -0.0 0.0 0.0 -0.0 0.0 0.0 1.53231e-13 8.49032e-14 6.18663e-14 78.4753 15.0637 -3.07802 -10.7465 -4.6073 19.2092 -0.00579647 -2.16928 -0.30502 -1.33993e-09 8.49616e-10 -8.32432e-10 -2.31363e-09 1.46648e-09 -1.43923e-09 -1.33993e-09 8.4962e-10 -8.32442e-10 7.73091 5.47488 0.417314 -1.33993e-09 8.49619e-10 -8.32435e-10 2.90554 0.965183 0.102902 -1.33992e-09 8.4962e-10 -8.32435e-10 10.2786 0.731801 0.0259123 -1.33993e-09 8.49619e-10 -8.32421e-10 2.22167 -0.733487 -0.20892 1.52958e-13 8.48892e-14 6.1511e-14 -82.3215 24.7736 3.56773 13.3784 -6.46365 -24.3117 0.0996623 -8.96789 1.27085 -1.65136e-09 -1.03602e-09 4.60347e-10 -2.85583e-09 -1.79499e-09 7.8796e-10 -1.65136e-09 -1.03602e-09 4.60362e-10 -7.73091 5.47488 -0.417314 -1.65136e-09 -1.03602e-09 4.60348e-10 -2.90554 0.965183 -0.102902 -1.65137e-09 -1.03602e-09 4.6035e-10 -10.2786 0.731801 -0.0259123 -1.65136e-09 -1.03602e-09 4.6034e-10 -2.22167 -0.733487 0.20892 -2.03217e-16 0.0 -3.88251e-19 4.76972 -13.9551 -3.39774 -0.157353 33.0952 0.873109 -11.8451 -22.415 -23.6945 2.03217e-16 0.0 3.88251e-19 7.59632 -27.9812 2.25257 0.639673 51.6735 -1.15623 5.36231 -10.1367 16.776
-0.32403000000000004 80.6016 0.9130000000000109 -2.5642 4.7591 6.0315 5.28685 2.56527 -1.73042 2.84352 -4.41148 -0.330222 6.02706 -5.93803 1.19129 -10.6496 2.28718 0.293285 -0.0 0.0 0.0 -0.0 0.0 0.0 1.50742e-13 9.70147e-14 7.33018e-14 78.3411 15.0012 -3.01527 -10.6695 -4.5583 19.0631 -0.00515215 -2.04905 -0.2881 -1.35503e-09 9.35789e-10 -9.52379e-10 -2.33953e-09 1.61536e-09 -1.64669e-09 -1.35503e-09 9.35793e-10 -9.52389e-10 7.73091 5.47488 0.417314 -1.35504e-09 9.35792e-10 -9.52382e-10 2.90554 0.965183 0.102902 -1.35503e-09 9.35792e-10 -9.52381e-10 10.2786 0.731801 0.0259123 -1.35504e-09 9.35791e-10 -9.52366e-10 2.22167 -0.733487 -0.20892 1.50427e-13 9.69982e-14 7.2954e-14 -82.4191 24.6026 3.51004 13.3873 -6.47054 -24.3293 0.0982627 -8.90526 1.26183 -1.8174e-09 -1.08717e-09 5.54183e-10 -3.14375e-09 -1.88389e-09 9.49357e-10 -1.8174e-09 -1.08716e-09 5.54196e-10 -7.73091 5.47488 -0.417314 -1.81739e-09 -1.08717e-09 5.54183e-10 -2.90554 0.965183 -0.102902 -1.8174e-09 -1.08716e-09 5.54184e-10 -10.2786 0.731801 -0.0259123 -1.81739e-09 -1.08716e-09 5.54173e-10 -2.22167 -0.733487 0.20892 -2.03217e-16 0.0 -3.88251e-19 4.97877 -13.7079 -3.55059 -0.152117 32.8142 0.869418 -11.8808 -22.4035 -23.8116 2.03217e-16 0.0 3.88251e-19 7.87073 -29.1932 2.41704 0.688987 52.944 -1.21037 5.29214 -10.1604 16.4224
-0.3830100000000001 80.5823 1.193000000000012 -2.6871 4.8759 6.132 5.58544 2.72355 -1.806 2.91216 -4.4563 -0.342928 6.01221 -5.82619 1.31084 -10.8883 1.87406 0.511486 -0.0 0.0 0.0 -0.0 0.0 0.0 1.1092e-13 1.26764e-13 7.52579e-14 78.0687 15.1095 -2.90309 -10.5693 -4.49492 18.8729 -0.00462244 -1.92919 -0.271234 -9.934e-10 9.40897e-10 -9.75908e-10 -1.71525e-09 1.62454e-09 -1.68694e-09 -9.93394e-10 9.409e-10 -9.75915e-10 7.73091 5.47488 0.417314 -9.93401e-10 9.40898e-10 -9.7591e-10 2.90554 0.965183 0.102902 -9.93391e-10 9.40898e-10 -9.75907e-10 10.2786 0.731801 0.0259123 -9.93406e-10 9.40898e-10 -9.75894e-10 2.22167 -0.733487 -0.20892 1.10639e-13 1.26747e-13 7.49469e-14 -82.6899 24.1831 3.55097 13.4005 -6.48076 -24.3557 0.0965643 -8.82883 1.25082 -1.37402e-09 -8.09172e-10 7.21623e-10 -2.37843e-09 -1.40435e-09 1.24096e-09 -1.37402e-09 -8.09171e-10 7.21633e-10 -7.73091 5.47488 -0.417314 -1.37402e-09 -8.09171e-10 7.21623e-10 -2.90554 0.965183 -0.102902 -1.37402e-09 -8.0917e-10 7.21624e-10 -10.2786 0.731801 -0.0259123 -1.37401e-09 -8.09168e-10 7.21614e-10 -2.22167 -0.733487 0.20892 -2.03217e-16 0.0 -3.88251e-19 5.14673 -13.4213 -3.67851 -0.146445 32.4938 0.865181 -11.8988 -22.3678 -23.9136 2.03217e-16 0.0 3.88251e-19 8.09981 -30.3522 2.5943 0.732489 53.9952 -1.25833 5.21357 -10.2882 15.9708
-0.4283800000000002 80.5717 1.5039999999999907 -2.7712 4.9561 6.2273 5.86724 2.86061 -1.96606 3.04575 -4.4995 -0.378055 6.03393 -5.65427 1.51477 -11.2507 1.38274 0.883252 -0.0 0.0 0.0 -0.0 0.0 0.0 4.53611e-14 1.6803e-13 7.06742e-14 77.6977 15.328 -2.75523 -10.4499 -4.41976 18.6472 -0.00415812 -1.80062 -0.253147 -3.84268e-10 9.00782e-10 -9.48364e-10 -6.63836e-10 1.55587e-09 -1.63856e-09 -3.84257e-10 9.00784e-10 -9.48366e-10 7.73091 5.47488 0.417314 -3.84264e-10 9.00781e-10 -9.48363e-10 2.90554 0.965183 0.102902 -3.84256e-10 9.00782e-10 -9.48359e-10 10.2786 0.731801 0.0259123 -3.84274e-10 9.00784e-10 -9.48347e-10 2.22167 -0.733487 -0.20892 4.51604e-14 1.68015e-13 7.04226e-14 -83.0807 23.5849 3.65857 13.4145 -6.49152 -24.3835 0.0945527 -8.73687 1.23759 -5.4659e-10 -3.0997e-10 9.41803e-10 -9.49439e-10 -5.42726e-10 1.6256e-09 -5.46604e-10 -3.09971e-10 9.4181e-10 -7.73091 5.47488 -0.417314 -5.46588e-10 -3.0997e-10 9.41803e-10 -2.90554 0.965183 -0.102902 -5.46595e-10 -3.0997e-10 9.41805e-10 -10.2786 0.731801 -0.0259123 -5.46584e-10 -3.09969e-10 9.41796e-10 -2.22167 -0.733487 0.20892 -2.03217e-16 0.0 -3.88251e-19 5.27899 -13.1077 -3.78628 -0.140412 32.141 0.860609 -11.9043 -22.3123 -24.0073 2.03217e-16 0.0 3.88251e-19 8.28939 -31.4841 2.78261 0.770676 54.872 -1.30087 5.12735 -10.5086 15.4386
-0.4643000000000006 80.5691 1.835000000000008 -2.8304 4.9943 6.3236 6.11132 2.99423 -2.0797 3.16244 -4.54262 -0.401326 6.04146 -5.4723 1.69046 -11.5642 0.889275 1.20426 -0.0 0.0 0.0 -0.0 0.0 0.0 -1.95511e-14 2.046e-13 6.41492e-14 77.354 15.4877 -2.61534 -10.326 -4.34209 18.4137 -0.00347197 -1.63307 -0.229578 2.29888e-10 8.35399e-10 -9.14822e-10 3.96226e-10 1.44351e-09 -1.57987e-09 2.29904e-10 8.354e-10 -9.14821e-10 7.73091 5.47488 0.417314 2.29897e-10 8.35396e-10 -9.14818e-10 2.90554 0.965183 0.102902 2.29903e-10 8.35396e-10 -9.14814e-10 10.2786 0.731801 0.0259123 2.29882e-10 8.354e-10 -9.14804e-10 2.22167 -0.733487 -0.20892 -1.96592e-14 2.04586e-13 6.39586e-14 -83.4516 23.0375 3.77815 13.4323 -6.50528 -24.4188 0.0930945 -8.66937 1.22788 3.03272e-10 2.10651e-10 1.14308e-09 5.18509e-10 3.56142e-10 1.97767e-09 3.0325e-10 2.10648e-10 1.14308e-09 -7.73091 5.47488 -0.417314 3.03273e-10 2.10651e-10 1.14308e-09 -2.90554 0.965183 -0.102902 3.03266e-10 2.1065e-10 1.14308e-09 -10.2786 0.731801 -0.0259123 3.03278e-10 2.1065e-10 1.14307e-09 -2.22167 -0.733487 0.20892 -2.03217e-16 0.0 -3.88251e-19 5.38207 -12.7618 -3.87869 -0.133988 31.7498 0.855599 -11.8972 -22.237 -24.0931 2.03217e-16 0.0 3.88251e-19 8.44816 -32.5748 2.97887 0.801766 55.5542 -1.33568 5.05076 -10.7431 14.9503
-0.4798499999999999 80.5841 2.1910000000000025 -2.8449 5.0001 6.4207 6.2956 3.14228 -2.01598 3.18051 -4.5872 -0.378459 5.98594 -5.3304 1.72546 -11.6645 0.469652 1.27035 -0.0 0.0 0.0 -0.0 0.0 0.0 -5.74312e-14 2.20259e-13 6.02815e-14 77.1657 15.4198 -2.52753 -10.2121 -4.27129 18.1998 -0.00239169 -1.39628 -0.196273 6.06595e-10 7.64698e-10 -9.2036e-10 1.04644e-09 1.32165e-09 -1.58915e-09 6.06613e-10 7.64698e-10 -9.20357e-10 7.73091 5.47488 0.417314 6.06607e-10 7.64693e-10 -9.20354e-10 2.90554 0.965183 0.102902 6.06612e-10 7.64693e-10 -9.2035e-10 10.2786 0.731801 0.0259123 6.06589e-10 7.64698e-10 -9.20341e-10 2.22167 -0.733487 -0.20892 -5.74701e-14 2.20248e-13 6.01324e-14 -83.6665 22.7705 3.8561 13.457 -6.52449 -24.4679 0.0930084 -8.66627 1.22743 8.13948e-10 5.52904e-10 1.2538e-09 1.40071e-09 9.47417e-10 2.17159e-09 8.13923e-10 5.529e-10 1.2538e-09 -7.73091 5.47488 -0.417314 8.13949e-10 5.52904e-10 1.2538e-09 -2.90554 0.965183 -0.102902 8.13942e-10 5.52902e-10 1.2538e-09 -10.2786 0.731801 -0.0259123 8.13955e-10 5.52901e-10 1.25379e-09 -2.22167 -0.733487 0.20892 -2.03217e-16 0.0 -3.88251e-19 5.46259 -12.3782 -3.96053 -0.127152 31.3142 0.850056 -11.8774 -22.1417 -24.1714 2.03217e-16 0.0 3.88251e-19 8.58425 -33.6103 3.17965 0.823948 56.0214 -1.36042 5.00544 -10.9131 14.6307
